<?xml version="1.0" standalone="no"?>
<!DOCTYPE svg PUBLIC "-//W3C//DTD SVG 20010904//EN"
 "http://www.w3.org/TR/2001/REC-SVG-20010904/DTD/svg10.dtd">
<svg version="1.0" xmlns="http://www.w3.org/2000/svg"
 width="261.000000pt" height="261.000000pt" viewBox="0 0 261.000000 261.000000"
 preserveAspectRatio="xMidYMid meet">
<metadata>
Created by potrace 1.11, written by Peter Selinger 2001-2013
</metadata>
<g transform="translate(0.000000,261.000000) scale(0.100000,-0.100000)"
fill="#000000" stroke="none">
<path d="M1135 2599 c-169 -22 -368 -95 -521 -190 -305 -193 -506 -480 -585
-840 -28 -123 -33 -365 -10 -489 19 -107 74 -272 121 -363 124 -244 339 -461
570 -577 189 -95 360 -135 580 -134 282 0 501 66 733 220 404 269 628 764 564
1244 -39 290 -159 539 -359 746 -286 295 -684 435 -1093 383z m193 -334 c49
-21 129 -100 143 -143 21 -63 -12 -155 -76 -210 -35 -31 -65 -41 -65 -22 0 5
-8 6 -17 3 -12 -5 -15 -2 -10 10 4 11 1 17 -9 17 -8 0 -12 5 -9 10 3 6 -3 10
-13 10 -20 0 -20 1 -2 48 26 68 30 126 8 130 -44 8 -141 -121 -206 -275 -48
-114 -48 -115 27 -130 116 -24 140 -33 182 -74 41 -40 42 -42 24 -56 -34 -24
-65 -26 -192 -14 -69 7 -126 11 -127 10 -1 -2 -33 -88 -69 -190 -95 -266 -133
-351 -191 -432 -61 -85 -117 -127 -178 -134 -55 -6 -89 10 -151 71 -49 49 -63
85 -47 116 10 19 13 19 47 5 130 -55 188 24 334 455 l59 174 -20 28 c-11 15
-20 32 -20 38 0 6 24 33 54 61 47 43 60 65 96 153 71 177 150 289 237 335 47
25 138 27 191 6z m790 -530 c42 -18 116 -86 138 -127 37 -71 -11 -199 -95
-251 -24 -14 -36 -17 -39 -9 -2 7 -11 12 -19 12 -9 0 -13 6 -9 15 3 9 0 15
-10 15 -9 0 -12 5 -8 12 5 8 2 9 -11 5 -14 -6 -16 -3 -12 15 26 99 35 154 27
162 -15 15 -87 -40 -125 -97 -42 -64 -125 -244 -125 -273 0 -17 10 -22 63 -32
109 -21 137 -32 180 -74 l42 -40 -25 -20 c-23 -19 -33 -20 -135 -13 -60 4
-125 8 -144 9 l-33 1 -82 -225 c-95 -260 -149 -370 -220 -447 -99 -109 -193
-112 -289 -10 -45 47 -58 76 -50 107 5 19 10 21 37 15 91 -19 105 -18 141 9
60 46 111 156 215 465 l52 154 -21 28 c-12 16 -21 32 -21 36 0 4 26 35 59 68
48 50 65 76 95 155 21 52 51 119 68 147 41 73 120 157 171 182 51 25 132 28
185 6z"/>
</g>
</svg>
